<svg width="1074.7" height="767.8000000000001" xmlns="http://www.w3.org/2000/svg" xmlns:xlink="http://www.w3.org/1999/xlink"><line x1="244.5" y1="7.5" x2="22.0" y2="32.0" style="stroke:black; stroke-width:1px;" />
<line x1="244.5" y1="7.5" x2="92.0" y2="32.0" style="stroke:black; stroke-width:1px;" />
<line x1="244.5" y1="7.5" x2="143.5" y2="32.0" style="stroke:black; stroke-width:1px;" />
<line x1="244.5" y1="7.5" x2="179.0" y2="32.0" style="stroke:black; stroke-width:1px;" />
<line x1="179.0" y1="39.5" x2="179.0" y2="64.0" style="stroke:black; stroke-width:1px;" />
<line x1="179.0" y1="71.5" x2="157.0" y2="96.0" style="stroke:black; stroke-width:1px;" />
<line x1="179.0" y1="71.5" x2="201.0" y2="96.0" style="stroke:black; stroke-width:1px;" />
<line x1="201.0" y1="103.5" x2="139.75" y2="128.0" style="stroke:black; stroke-width:1px;" />
<line x1="139.75" y1="135.5" x2="116.25" y2="160.0" style="stroke:black; stroke-width:1px;" />
<line x1="139.75" y1="135.5" x2="163.25" y2="160.0" style="stroke:black; stroke-width:1px;" />
<line x1="201.0" y1="103.5" x2="177.5" y2="128.0" style="stroke:black; stroke-width:1px;" />
<line x1="201.0" y1="103.5" x2="205.75" y2="128.0" style="stroke:black; stroke-width:1px;" />
<line x1="205.75" y1="135.5" x2="205.75" y2="160.0" style="stroke:black; stroke-width:1px;" />
<line x1="201.0" y1="103.5" x2="226.75" y2="128.0" style="stroke:black; stroke-width:1px;" />
<line x1="201.0" y1="103.5" x2="262.25" y2="128.0" style="stroke:black; stroke-width:1px;" />
<line x1="262.25" y1="135.5" x2="262.25" y2="160.0" style="stroke:black; stroke-width:1px;" />
<line x1="262.25" y1="167.5" x2="198.75" y2="192.0" style="stroke:black; stroke-width:1px;" />
<line x1="198.75" y1="199.5" x2="175.75" y2="224.0" style="stroke:black; stroke-width:1px;" />
<line x1="198.75" y1="199.5" x2="221.75" y2="224.0" style="stroke:black; stroke-width:1px;" />
<line x1="221.75" y1="231.5" x2="206.5" y2="256.0" style="stroke:black; stroke-width:1px;" />
<line x1="221.75" y1="231.5" x2="237.0" y2="256.0" style="stroke:black; stroke-width:1px;" />
<line x1="237.0" y1="263.5" x2="217.0" y2="288.0" style="stroke:black; stroke-width:1px;" />
<line x1="237.0" y1="263.5" x2="257.0" y2="288.0" style="stroke:black; stroke-width:1px;" />
<line x1="262.25" y1="167.5" x2="238.75" y2="192.0" style="stroke:black; stroke-width:1px;" />
<line x1="262.25" y1="167.5" x2="269.25" y2="192.0" style="stroke:black; stroke-width:1px;" />
<line x1="269.25" y1="199.5" x2="269.25" y2="224.0" style="stroke:black; stroke-width:1px;" />
<line x1="262.25" y1="167.5" x2="290.25" y2="192.0" style="stroke:black; stroke-width:1px;" />
<line x1="262.25" y1="167.5" x2="325.75" y2="192.0" style="stroke:black; stroke-width:1px;" />
<line x1="244.5" y1="7.5" x2="467.0" y2="32.0" style="stroke:black; stroke-width:1px;" />
<line x1="467.0" y1="39.5" x2="419.5" y2="64.0" style="stroke:black; stroke-width:1px;" />
<line x1="467.0" y1="39.5" x2="467.0" y2="64.0" style="stroke:black; stroke-width:1px;" />
<line x1="467.0" y1="71.5" x2="434.5" y2="96.0" style="stroke:black; stroke-width:1px;" />
<line x1="434.5" y1="103.5" x2="434.5" y2="128.0" style="stroke:black; stroke-width:1px;" />
<line x1="434.5" y1="135.5" x2="385.75" y2="160.0" style="stroke:black; stroke-width:1px;" />
<line x1="434.5" y1="135.5" x2="408.75" y2="160.0" style="stroke:black; stroke-width:1px;" />
<line x1="434.5" y1="135.5" x2="446.75" y2="160.0" style="stroke:black; stroke-width:1px;" />
<line x1="446.75" y1="167.5" x2="417.25" y2="192.0" style="stroke:black; stroke-width:1px;" />
<line x1="417.25" y1="199.5" x2="376.0" y2="224.0" style="stroke:black; stroke-width:1px;" />
<line x1="376.0" y1="231.5" x2="348.5" y2="256.0" style="stroke:black; stroke-width:1px;" />
<line x1="348.5" y1="263.5" x2="320.5" y2="288.0" style="stroke:black; stroke-width:1px;" />
<line x1="348.5" y1="263.5" x2="376.5" y2="288.0" style="stroke:black; stroke-width:1px;" />
<line x1="376.5" y1="295.5" x2="376.5" y2="320.0" style="stroke:black; stroke-width:1px;" />
<line x1="376.0" y1="231.5" x2="403.5" y2="256.0" style="stroke:black; stroke-width:1px;" />
<line x1="417.25" y1="199.5" x2="458.5" y2="224.0" style="stroke:black; stroke-width:1px;" />
<line x1="458.5" y1="231.5" x2="447.0" y2="256.0" style="stroke:black; stroke-width:1px;" />
<line x1="458.5" y1="231.5" x2="470.0" y2="256.0" style="stroke:black; stroke-width:1px;" />
<line x1="470.0" y1="263.5" x2="445.25" y2="288.0" style="stroke:black; stroke-width:1px;" />
<line x1="445.25" y1="295.5" x2="407.25" y2="320.0" style="stroke:black; stroke-width:1px;" />
<line x1="407.25" y1="327.5" x2="379.25" y2="352.0" style="stroke:black; stroke-width:1px;" />
<line x1="407.25" y1="327.5" x2="435.25" y2="352.0" style="stroke:black; stroke-width:1px;" />
<line x1="435.25" y1="359.5" x2="435.25" y2="384.0" style="stroke:black; stroke-width:1px;" />
<line x1="445.25" y1="295.5" x2="483.25" y2="320.0" style="stroke:black; stroke-width:1px;" />
<line x1="483.25" y1="327.5" x2="468.25" y2="352.0" style="stroke:black; stroke-width:1px;" />
<line x1="483.25" y1="327.5" x2="498.25" y2="352.0" style="stroke:black; stroke-width:1px;" />
<line x1="498.25" y1="359.5" x2="470.75" y2="384.0" style="stroke:black; stroke-width:1px;" />
<line x1="470.75" y1="391.5" x2="442.75" y2="416.0" style="stroke:black; stroke-width:1px;" />
<line x1="470.75" y1="391.5" x2="498.75" y2="416.0" style="stroke:black; stroke-width:1px;" />
<line x1="498.75" y1="423.5" x2="498.75" y2="448.0" style="stroke:black; stroke-width:1px;" />
<line x1="498.25" y1="359.5" x2="525.75" y2="384.0" style="stroke:black; stroke-width:1px;" />
<line x1="470.0" y1="263.5" x2="494.75" y2="288.0" style="stroke:black; stroke-width:1px;" />
<line x1="446.75" y1="167.5" x2="476.25" y2="192.0" style="stroke:black; stroke-width:1px;" />
<line x1="434.5" y1="135.5" x2="483.25" y2="160.0" style="stroke:black; stroke-width:1px;" />
<line x1="467.0" y1="71.5" x2="499.5" y2="96.0" style="stroke:black; stroke-width:1px;" />
<line x1="467.0" y1="39.5" x2="514.5" y2="64.0" style="stroke:black; stroke-width:1px;" />
<rect x="356.0" y="288.0" width="41.0" height="15.0" style="fill:orange; stroke:rgb(0,0,0);" rx="1"/>
<text x="358" y="297" style="font-family:sans-serif;font-size:10px;">
var_cte
</text>
<rect x="219.5" y="0.0" width="50.0" height="15.0" style="fill:orange; stroke:rgb(0,0,0);" rx="1"/>
<text x="221" y="9" style="font-family:sans-serif;font-size:10px;">
programa
</text>
<rect x="430.5" y="64.0" width="73.0" height="15.0" style="fill:orange; stroke:rgb(0,0,0);" rx="1"/>
<text x="432" y="73" style="font-family:sans-serif;font-size:10px;">
bloque_dentro
</text>
<rect x="350.75" y="352.0" width="57.0" height="15.0" style="fill:orange; stroke:rgb(0,0,0);" rx="1"/>
<text x="352" y="361" style="font-family:sans-serif;font-size:10px;">
factor_pos
</text>
<rect x="414.25" y="416.0" width="57.0" height="15.0" style="fill:orange; stroke:rgb(0,0,0);" rx="1"/>
<text x="416" y="425" style="font-family:sans-serif;font-size:10px;">
factor_pos
</text>
<rect x="166.0" y="64.0" width="26.0" height="15.0" style="fill:orange; stroke:rgb(0,0,0);" rx="1"/>
<text x="168" y="73" style="font-family:sans-serif;font-size:10px;">
vars
</text>
<rect x="198.25" y="160.0" width="15.0" height="15.0" style="fill:orange; stroke:rgb(0,0,0);" rx="1"/>
<text x="200" y="169" style="font-family:sans-serif;font-size:10px;">
int
</text>
<rect x="178.75" y="192.0" width="40.0" height="15.0" style="fill:orange; stroke:rgb(0,0,0);" rx="1"/>
<text x="180" y="201" style="font-family:sans-serif;font-size:10px;">
vars_id
</text>
<rect x="217.0" y="256.0" width="40.0" height="15.0" style="fill:orange; stroke:rgb(0,0,0);" rx="1"/>
<text x="219" y="265" style="font-family:sans-serif;font-size:10px;">
vars_id
</text>
<rect x="435.25" y="192.0" width="82.0" height="15.0" style="fill:orange; stroke:rgb(0,0,0);" rx="1"/>
<text x="437" y="201" style="font-family:sans-serif;font-size:10px;">
expresion_relop
</text>
<rect x="494.25" y="384.0" width="63.0" height="15.0" style="fill:orange; stroke:rgb(0,0,0);" rx="1"/>
<text x="496" y="393" style="font-family:sans-serif;font-size:10px;">
termino_pos
</text>
<rect x="371.5" y="320.0" width="10.0" height="15.0" style="fill:orange; stroke:rgb(0,0,0);" rx="1"/>
<text x="373" y="329" style="font-family:sans-serif;font-size:10px;">
5
</text>
<rect x="425.75" y="288.0" width="39.0" height="15.0" style="fill:orange; stroke:rgb(0,0,0);" rx="1"/>
<text x="427" y="297" style="font-family:sans-serif;font-size:10px;">
termino
</text>
<rect x="510.5" y="64.0" width="8.0" height="15.0" style="fill:orange; stroke:rgb(0,0,0);" rx="1"/>
<text x="512" y="73" style="font-family:sans-serif;font-size:10px;">
}
</text>
<rect x="119.75" y="128.0" width="40.0" height="15.0" style="fill:orange; stroke:rgb(0,0,0);" rx="1"/>
<text x="121" y="137" style="font-family:sans-serif;font-size:10px;">
vars_id
</text>
<rect x="420.75" y="160.0" width="52.0" height="15.0" style="fill:orange; stroke:rgb(0,0,0);" rx="1"/>
<text x="422" y="169" style="font-family:sans-serif;font-size:10px;">
expresion
</text>
<rect x="493.75" y="448.0" width="10.0" height="15.0" style="fill:orange; stroke:rgb(0,0,0);" rx="1"/>
<text x="495" y="457" style="font-family:sans-serif;font-size:10px;">
6
</text>
<rect x="415.5" y="64.0" width="8.0" height="15.0" style="fill:orange; stroke:rgb(0,0,0);" rx="1"/>
<text x="417" y="73" style="font-family:sans-serif;font-size:10px;">
{
</text>
<rect x="258.75" y="192.0" width="21.0" height="15.0" style="fill:orange; stroke:rgb(0,0,0);" rx="1"/>
<text x="260" y="201" style="font-family:sans-serif;font-size:10px;">
tipo
</text>
<rect x="51.0" y="32.0" width="82.0" height="15.0" style="fill:orange; stroke:rgb(0,0,0);" rx="1"/>
<text x="53" y="41" style="font-family:sans-serif;font-size:10px;">
estoEsChido101
</text>
<rect x="478.75" y="352.0" width="39.0" height="15.0" style="fill:orange; stroke:rgb(0,0,0);" rx="1"/>
<text x="480" y="361" style="font-family:sans-serif;font-size:10px;">
termino
</text>
<rect x="406.5" y="128.0" width="56.0" height="15.0" style="fill:orange; stroke:rgb(0,0,0);" rx="1"/>
<text x="408" y="137" style="font-family:sans-serif;font-size:10px;">
asignacion
</text>
<rect x="154.0" y="32.0" width="50.0" height="15.0" style="fill:orange; stroke:rgb(0,0,0);" rx="1"/>
<text x="156" y="41" style="font-family:sans-serif;font-size:10px;">
vars_pos
</text>
<rect x="256.75" y="224.0" width="25.0" height="15.0" style="fill:orange; stroke:rgb(0,0,0);" rx="1"/>
<text x="258" y="233" style="font-family:sans-serif;font-size:10px;">
float
</text>
<rect x="164.75" y="224.0" width="22.0" height="15.0" style="fill:orange; stroke:rgb(0,0,0);" rx="1"/>
<text x="166" y="233" style="font-family:sans-serif;font-size:10px;">
avg
</text>
<rect x="174.0" y="128.0" width="7.0" height="15.0" style="fill:orange; stroke:rgb(0,0,0);" rx="1"/>
<text x="176" y="137" style="font-family:sans-serif;font-size:10px;">
:
</text>
<rect x="0.0" y="32.0" width="44.0" height="15.0" style="fill:orange; stroke:rgb(0,0,0);" rx="1"/>
<text x="2" y="41" style="font-family:sans-serif;font-size:10px;">
program
</text>
<rect x="203.0" y="256.0" width="7.0" height="15.0" style="fill:orange; stroke:rgb(0,0,0);" rx="1"/>
<text x="205" y="265" style="font-family:sans-serif;font-size:10px;">
,
</text>
<rect x="454.25" y="384.0" width="33.0" height="15.0" style="fill:orange; stroke:rgb(0,0,0);" rx="1"/>
<text x="456" y="393" style="font-family:sans-serif;font-size:10px;">
factor
</text>
<rect x="451.75" y="320.0" width="63.0" height="15.0" style="fill:orange; stroke:rgb(0,0,0);" rx="1"/>
<text x="453" y="329" style="font-family:sans-serif;font-size:10px;">
termino_pos
</text>
<rect x="237.25" y="128.0" width="50.0" height="15.0" style="fill:orange; stroke:rgb(0,0,0);" rx="1"/>
<text x="239" y="137" style="font-family:sans-serif;font-size:10px;">
vars_add
</text>
<rect x="464.75" y="352.0" width="7.0" height="15.0" style="fill:orange; stroke:rgb(0,0,0);" rx="1"/>
<text x="466" y="361" style="font-family:sans-serif;font-size:10px;">
/
</text>
<rect x="413.0" y="96.0" width="43.0" height="15.0" style="fill:orange; stroke:rgb(0,0,0);" rx="1"/>
<text x="415" y="105" style="font-family:sans-serif;font-size:10px;">
estatuto
</text>
<rect x="147.0" y="96.0" width="20.0" height="15.0" style="fill:orange; stroke:rgb(0,0,0);" rx="1"/>
<text x="149" y="105" style="font-family:sans-serif;font-size:10px;">
var
</text>
<rect x="286.75" y="192.0" width="7.0" height="15.0" style="fill:orange; stroke:rgb(0,0,0);" rx="1"/>
<text x="288" y="201" style="font-family:sans-serif;font-size:10px;">
;
</text>
<rect x="212.0" y="288.0" width="10.0" height="15.0" style="fill:orange; stroke:rgb(0,0,0);" rx="1"/>
<text x="214" y="297" style="font-family:sans-serif;font-size:10px;">
fl
</text>
<rect x="406.25" y="192.0" width="22.0" height="15.0" style="fill:orange; stroke:rgb(0,0,0);" rx="1"/>
<text x="408" y="201" style="font-family:sans-serif;font-size:10px;">
exp
</text>
<rect x="174.0" y="96.0" width="54.0" height="15.0" style="fill:orange; stroke:rgb(0,0,0);" rx="1"/>
<text x="176" y="105" style="font-family:sans-serif;font-size:10px;">
vars_start
</text>
<rect x="478.25" y="416.0" width="41.0" height="15.0" style="fill:orange; stroke:rgb(0,0,0);" rx="1"/>
<text x="480" y="425" style="font-family:sans-serif;font-size:10px;">
var_cte
</text>
<rect x="479.75" y="160.0" width="7.0" height="15.0" style="fill:orange; stroke:rgb(0,0,0);" rx="1"/>
<text x="481" y="169" style="font-family:sans-serif;font-size:10px;">
;
</text>
<rect x="403.75" y="160.0" width="10.0" height="15.0" style="fill:orange; stroke:rgb(0,0,0);" rx="1"/>
<text x="405" y="169" style="font-family:sans-serif;font-size:10px;">
=
</text>
<rect x="442.0" y="256.0" width="10.0" height="15.0" style="fill:orange; stroke:rgb(0,0,0);" rx="1"/>
<text x="444" y="265" style="font-family:sans-serif;font-size:10px;">
+
</text>
<rect x="332.0" y="256.0" width="33.0" height="15.0" style="fill:orange; stroke:rgb(0,0,0);" rx="1"/>
<text x="334" y="265" style="font-family:sans-serif;font-size:10px;">
factor
</text>
<rect x="459.0" y="256.0" width="22.0" height="15.0" style="fill:orange; stroke:rgb(0,0,0);" rx="1"/>
<text x="461" y="265" style="font-family:sans-serif;font-size:10px;">
exp
</text>
<rect x="449.0" y="32.0" width="36.0" height="15.0" style="fill:orange; stroke:rgb(0,0,0);" rx="1"/>
<text x="451" y="41" style="font-family:sans-serif;font-size:10px;">
bloque
</text>
<rect x="223.25" y="128.0" width="7.0" height="15.0" style="fill:orange; stroke:rgb(0,0,0);" rx="1"/>
<text x="225" y="137" style="font-family:sans-serif;font-size:10px;">
;
</text>
<rect x="300.75" y="192.0" width="50.0" height="15.0" style="fill:orange; stroke:rgb(0,0,0);" rx="1"/>
<text x="302" y="201" style="font-family:sans-serif;font-size:10px;">
vars_add
</text>
<rect x="229.0" y="288.0" width="56.0" height="15.0" style="fill:orange; stroke:rgb(0,0,0);" rx="1"/>
<text x="231" y="297" style="font-family:sans-serif;font-size:10px;">
vars_more
</text>
<rect x="423.25" y="384.0" width="24.0" height="15.0" style="fill:orange; stroke:rgb(0,0,0);" rx="1"/>
<text x="425" y="393" style="font-family:sans-serif;font-size:10px;">
sum
</text>
<rect x="463.0" y="96.0" width="73.0" height="15.0" style="fill:orange; stroke:rgb(0,0,0);" rx="1"/>
<text x="465" y="105" style="font-family:sans-serif;font-size:10px;">
bloque_dentro
</text>
<rect x="435.5" y="224.0" width="46.0" height="15.0" style="fill:orange; stroke:rgb(0,0,0);" rx="1"/>
<text x="437" y="233" style="font-family:sans-serif;font-size:10px;">
exp_pos
</text>
<rect x="390.75" y="320.0" width="33.0" height="15.0" style="fill:orange; stroke:rgb(0,0,0);" rx="1"/>
<text x="392" y="329" style="font-family:sans-serif;font-size:10px;">
factor
</text>
<rect x="471.75" y="288.0" width="46.0" height="15.0" style="fill:orange; stroke:rgb(0,0,0);" rx="1"/>
<text x="473" y="297" style="font-family:sans-serif;font-size:10px;">
exp_pos
</text>
<rect x="372.0" y="256.0" width="63.0" height="15.0" style="fill:orange; stroke:rgb(0,0,0);" rx="1"/>
<text x="374" y="265" style="font-family:sans-serif;font-size:10px;">
termino_pos
</text>
<rect x="235.25" y="192.0" width="7.0" height="15.0" style="fill:orange; stroke:rgb(0,0,0);" rx="1"/>
<text x="237" y="201" style="font-family:sans-serif;font-size:10px;">
:
</text>
<rect x="292.0" y="288.0" width="57.0" height="15.0" style="fill:orange; stroke:rgb(0,0,0);" rx="1"/>
<text x="294" y="297" style="font-family:sans-serif;font-size:10px;">
factor_pos
</text>
<rect x="414.75" y="352.0" width="41.0" height="15.0" style="fill:orange; stroke:rgb(0,0,0);" rx="1"/>
<text x="416" y="361" style="font-family:sans-serif;font-size:10px;">
var_cte
</text>
<rect x="193.75" y="224.0" width="56.0" height="15.0" style="fill:orange; stroke:rgb(0,0,0);" rx="1"/>
<text x="195" y="233" style="font-family:sans-serif;font-size:10px;">
vars_more
</text>
<rect x="374.75" y="160.0" width="22.0" height="15.0" style="fill:orange; stroke:rgb(0,0,0);" rx="1"/>
<text x="376" y="169" style="font-family:sans-serif;font-size:10px;">
avg
</text>
<rect x="104.25" y="160.0" width="24.0" height="15.0" style="fill:orange; stroke:rgb(0,0,0);" rx="1"/>
<text x="106" y="169" style="font-family:sans-serif;font-size:10px;">
sum
</text>
<rect x="135.25" y="160.0" width="56.0" height="15.0" style="fill:orange; stroke:rgb(0,0,0);" rx="1"/>
<text x="137" y="169" style="font-family:sans-serif;font-size:10px;">
vars_more
</text>
<rect x="195.25" y="128.0" width="21.0" height="15.0" style="fill:orange; stroke:rgb(0,0,0);" rx="1"/>
<text x="197" y="137" style="font-family:sans-serif;font-size:10px;">
tipo
</text>
<rect x="235.25" y="160.0" width="54.0" height="15.0" style="fill:orange; stroke:rgb(0,0,0);" rx="1"/>
<text x="237" y="169" style="font-family:sans-serif;font-size:10px;">
vars_start
</text>
<rect x="356.5" y="224.0" width="39.0" height="15.0" style="fill:orange; stroke:rgb(0,0,0);" rx="1"/>
<text x="358" y="233" style="font-family:sans-serif;font-size:10px;">
termino
</text>
<rect x="140.0" y="32.0" width="7.0" height="15.0" style="fill:orange; stroke:rgb(0,0,0);" rx="1"/>
<text x="142" y="41" style="font-family:sans-serif;font-size:10px;">
;
</text>
</svg>